# Blender 3.4.1
# www.blender.org
mtllib BattleFloor.mtl
o BaseTree
v -4.009140 2.967691 -14.776946
v -9.715110 3.445937 -14.317243
v -13.649546 2.047866 -12.687547
v -17.028120 1.989941 -10.095074
v -19.620594 3.445937 -6.716498
v -21.250290 3.445937 -2.782063
v -21.806150 3.445937 1.440107
v -21.250290 3.445937 5.662276
v -19.620594 3.445937 9.596711
v -17.028120 3.445937 12.975286
v -13.649546 3.445937 15.567760
v -9.192887 4.193605 16.861727
v -5.158777 3.105299 17.684671
v -1.270771 2.803419 17.197456
v 2.663664 3.311174 15.567760
v 6.042240 2.835859 12.975286
v 8.634712 2.835859 9.596711
v 10.264408 2.367081 5.662276
v 10.820269 2.009509 1.440107
v 10.028555 1.872321 -3.384242
v 8.758123 2.875961 -7.041325
v 6.115431 2.978806 -10.166417
v 2.736856 2.978806 -12.758889
v -1.245015 2.967691 -14.404756
v -5.400673 0.878186 -14.860955
v -9.715110 0.878186 -14.317243
v -13.649546 0.878186 -12.687547
v -17.028120 0.878186 -10.095074
v -19.620594 0.878186 -6.716498
v -21.250290 0.878186 -2.782063
v -21.806150 0.878186 1.440107
v -21.250290 0.878186 5.662276
v -19.620594 0.878186 9.596711
v -17.028120 0.878186 12.975286
v -13.649546 0.878186 15.567760
v -9.715110 0.878186 17.197456
v -5.492940 0.878186 17.753317
v -1.270771 0.878186 17.197456
v 2.663664 0.878186 15.567760
v 6.042240 0.878186 12.975286
v 8.634712 0.878186 9.596711
v 10.264408 0.878186 5.662276
v 10.820269 0.878186 1.440107
v 10.124014 0.878186 -3.121011
v 8.634712 0.878186 -6.716498
v 6.042240 0.878186 -10.095074
v 2.663664 0.878186 -12.687547
v -1.270771 0.878186 -14.317243
v -3.958739 2.967691 -15.359662
v -9.867645 3.445937 -14.886514
v -13.944221 2.047866 -13.197941
v -17.444857 1.989941 -10.511809
v -20.130987 3.445937 -7.011174
v -21.819561 3.445937 -2.934598
v -22.395502 3.445937 1.440107
v -21.819561 3.445937 5.814812
v -20.130987 3.445937 9.891387
v -17.444857 3.445937 13.392022
v -13.944221 3.445937 16.078154
v -9.417423 4.078381 17.411957
v -5.237571 2.950756 18.264629
v -1.118236 2.803419 17.766727
v 2.958340 3.311174 16.078154
v 6.458975 2.835859 13.392022
v 9.145107 2.835859 9.891387
v 10.833679 2.367081 5.814812
v 11.409620 2.009509 1.440107
v 10.597824 1.872321 -3.536777
v 9.268518 2.875961 -7.336000
v 6.532167 2.978806 -10.583153
v 3.031532 2.978806 -13.269284
v -1.092479 2.967691 -14.974027
v -5.364058 0.435910 -15.445487
v -9.867645 0.435910 -14.886514
v -13.944221 0.435910 -13.197941
v -17.444857 0.435910 -10.511809
v -20.130987 0.435910 -7.011174
v -21.819561 0.435910 -2.934598
v -22.395502 0.435910 1.440107
v -21.819561 0.830192 5.814812
v -20.130987 0.830192 9.891387
v -17.444857 0.435910 13.392022
v -13.944221 0.435910 16.078154
v -9.867645 0.435910 17.766727
v -5.492940 0.435910 18.342669
v -1.118236 0.435910 17.766727
v 2.958340 0.435910 16.078154
v 6.458975 0.435910 13.392022
v 9.145107 0.435910 9.891387
v 10.833679 0.435910 5.814812
v 11.409620 0.435910 1.440107
v 10.663843 0.793532 -3.344615
v 9.145107 0.435910 -7.011174
v 6.458975 0.435910 -10.511809
v 2.958340 0.435910 -13.197941
v -1.118236 0.435910 -14.886514
v -14.888699 2.992287 14.899890
v -14.043129 0.878186 15.265751
v -15.197596 2.992287 15.399374
v -14.352024 0.349471 15.765235
v -16.467560 3.035782 13.488276
v -16.657734 0.878186 13.259493
v -16.870914 3.035782 13.915278
v -17.061090 0.349471 13.686497
v -14.576057 2.323927 15.569341
v -14.289164 2.312822 15.057023
v -16.915546 1.537159 13.223531
v -17.297325 1.520241 13.669610
v -1.270771 2.384730 17.197456
v 2.663664 2.384730 15.567760
v -1.118236 2.163592 17.766727
v 2.958340 2.163592 16.078154
v 10.264408 0.878186 -2.782063
v 10.264408 2.009509 -2.782063
v 10.833679 2.009509 -2.934598
v 10.833679 0.793532 -2.934598
v -5.492940 0.878186 -14.873103
v -4.901013 2.554675 -15.093678
v -4.901013 2.554675 -15.683030
v -5.492940 0.435910 -15.462455
v -9.867645 -19.503616 -14.886514
v -5.492940 -19.503616 -15.462455
v -13.944221 -19.503616 -13.197941
v -17.444857 -19.503616 -10.511809
v -20.130987 -19.503616 -7.011174
v -21.819561 -19.503616 -2.934598
v -22.395502 -19.503616 1.440107
v -21.819561 -19.109335 5.814812
v -20.130987 -19.109335 9.891387
v -17.444857 -19.503616 13.392022
v -17.061090 -19.590055 13.686497
v -9.867645 -19.503616 17.766727
v -13.944221 -19.503616 16.078154
v -5.492940 -19.503616 18.342669
v -1.118236 -19.503616 17.766727
v 2.958340 -19.503616 16.078154
v 6.458975 -19.503616 13.392022
v 9.145107 -19.503616 9.891387
v 10.833679 -19.503616 5.814812
v 11.409620 -19.503616 1.440107
v 6.458975 -19.503616 -10.511809
v 9.145107 -19.503616 -7.011174
v 2.958340 -19.503616 -13.197941
v -1.118236 -19.503616 -14.886514
v -5.364058 -19.503616 -15.445487
v -14.352024 -19.590055 15.765235
v 10.833679 -19.145994 -2.934598
v 10.663843 -19.145994 -3.344615
vn -0.0023 1.0000 -0.0010
vn -0.0000 1.0000 -0.0000
vn -0.3820 0.0440 0.9231
vn 0.1487 0.0306 0.9884
vn -0.7934 -0.0000 -0.6088
vn 0.7934 -0.0000 -0.6088
vn -0.1316 0.0454 0.9903
vn 0.3827 -0.0000 0.9239
vn -0.9239 -0.0000 -0.3827
vn 0.5636 0.0491 -0.8246
vn 0.6088 -0.0000 0.7934
vn -0.9914 -0.0000 -0.1305
vn 0.3345 -0.0833 -0.9387
vn 0.7934 -0.0000 0.6088
vn -0.9914 -0.0000 0.1305
vn 0.1517 -0.0952 -0.9838
vn 0.9239 -0.0000 0.3827
vn -0.9279 0.0802 0.3642
vn -0.1278 -0.0061 -0.9918
vn 0.9914 -0.0000 0.1305
vn -0.7745 0.0976 0.6250
vn -0.3827 -0.0000 -0.9239
vn 0.9914 -0.0000 -0.1305
vn -0.6081 0.0481 0.7924
vn -0.6088 -0.0000 -0.7934
vn 0.2588 -0.0000 0.9659
vn 0.1756 0.9842 -0.0231
vn -0.2835 0.9517 0.1174
vn 0.0411 0.9942 -0.0993
vn 0.3378 0.8821 0.3284
vn -0.0106 0.9999 0.0081
vn 0.0107 0.9966 -0.0815
vn -0.1600 0.9867 0.0289
vn 0.1938 0.9480 -0.2526
vn 0.1971 0.9403 0.2774
vn 0.0944 0.9691 0.2280
vn 0.0713 0.9892 0.1284
vn 0.0150 0.9997 0.0196
vn 0.9659 -0.0000 -0.2588
vn 0.0865 0.9940 -0.0663
vn -0.3353 0.0728 0.9393
vn -0.1530 0.0867 0.9844
vn 0.9302 -0.0682 -0.3607
vn 0.1256 0.0093 0.9920
vn 0.7764 -0.0803 -0.6251
vn 0.6083 -0.0397 -0.7927
vn -0.5000 -0.0000 -0.8660
vn 0.3821 -0.0364 -0.9234
vn -0.1477 -0.0255 -0.9887
vn -0.7934 -0.0000 0.6088
vn 0.1316 -0.0375 -0.9906
vn -0.7340 0.0067 0.6791
vn -0.0756 0.9966 0.0313
vn -0.5736 -0.0423 0.8180
vn -0.2620 0.9523 -0.1566
vn 0.7378 -0.0093 -0.6749
vn 0.5859 0.0464 -0.8091
vn -0.1958 0.9719 -0.1307
vn -0.5877 -0.0313 0.8085
vn 0.7093 -0.3127 0.6318
vn -0.6418 -0.6714 -0.3706
vn -0.8660 -0.0000 0.5000
vn 0.1355 0.9353 0.3270
vn -0.2588 -0.0000 -0.9659
vn 0.1325 0.9897 -0.0549
vn 0.3283 0.2270 0.9169
vn 0.9526 -0.2847 0.1068
vn -0.8234 0.5076 -0.2537
vn 0.0788 0.7973 -0.5984
vn -0.0015 -1.0000 0.0007
vn 0.9239 -0.0000 -0.3827
vn 0.6088 -0.0000 -0.7934
vn -0.9239 -0.0000 0.3827
vn 0.3827 -0.0000 -0.9239
vn 0.1305 -0.0000 -0.9914
vn -0.6088 -0.0000 0.7934
vn -0.3827 -0.0000 0.9239
vn -0.1305 -0.0000 0.9914
vn 0.1305 -0.0000 0.9914
vn -0.1305 -0.0000 -0.9914
vt 0.249147 0.547934
vt 0.155513 0.532753
vt 0.308835 0.591703
vt 0.975570 0.583605
vt 0.589011 0.899418
vt 0.954343 0.648259
vt 0.552504 0.841990
vt 0.953464 0.712914
vt 0.532714 0.780432
vt 0.975570 0.777569
vt 0.528899 0.712208
vt 0.975570 0.842223
vt 0.541671 0.648829
vt 0.975570 0.906878
vt 0.570412 0.590912
vt 0.975570 0.971533
vt 0.613163 0.542410
vt 0.165325 0.792336
vt 0.799755 0.823565
vt 0.785922 0.760407
vt 0.163532 0.727706
vt 0.165359 0.660856
vt 0.789550 0.637644
vt 0.155513 0.590174
vt 0.819961 0.573082
vt 0.172370 0.527755
vt 0.014197 0.975172
vt 0.847236 0.514462
vt 0.772919 0.872944
vt 0.018782 0.915682
vt 0.714454 0.861031
vt 0.011074 0.851029
vt 0.660559 0.798130
vt 0.018290 0.786373
vt 0.651485 0.733710
vt 0.018290 0.721718
vt 0.659292 0.669529
vt 0.025407 0.657063
vt 0.683546 0.609175
vt 0.030836 0.592409
vt 0.722433 0.557238
vt 0.266233 0.840393
vt 0.155513 0.809092
vt 0.321356 0.529334
vt 0.248105 0.782442
vt 0.123973 0.757206
vt 0.246240 0.720314
vt 0.112575 0.696106
vt 0.246595 0.655661
vt 0.114505 0.631480
vt 0.247922 0.590260
vt 0.133361 0.568842
vt 0.542115 0.159002
vt 0.281507 0.527754
vt 0.292595 0.557199
vt 0.572404 0.105863
vt 0.936586 0.583605
vt 0.614762 0.063504
vt 0.936586 0.648259
vt 0.666639 0.033553
vt 0.936586 0.712914
vt 0.724499 0.018050
vt 0.936586 0.777569
vt 0.784401 0.018050
vt 0.936586 0.842223
vt 0.842263 0.033553
vt 0.936586 0.906878
vt 0.894139 0.063504
vt 0.936586 0.971533
vt 0.642538 0.516779
vt 0.847236 0.915074
vt 0.936496 0.105863
vt 0.204296 0.791255
vt 0.812992 0.860234
vt 0.966447 0.157739
vt 0.202503 0.726625
vt 0.981952 0.215599
vt 0.204326 0.661996
vt 0.981952 0.275502
vt 0.206214 0.597370
vt 0.966447 0.333363
vt 0.206214 0.532714
vt 0.048011 0.980338
vt 0.936496 0.385240
vt 0.048011 0.915682
vt 0.894139 0.427596
vt 0.048011 0.851029
vt 0.842263 0.457548
vt 0.048011 0.786373
vt 0.784401 0.473053
vt 0.048011 0.721718
vt 0.724500 0.473053
vt 0.048011 0.657063
vt 0.666639 0.457548
vt 0.048011 0.592409
vt 0.611113 0.423949
vt 0.281507 0.843941
vt 0.318230 0.544700
vt 0.572404 0.385240
vt 0.278791 0.784920
vt 0.542452 0.333363
vt 0.278169 0.720269
vt 0.526949 0.275502
vt 0.278524 0.655613
vt 0.526949 0.215601
vt 0.279668 0.590969
vt 0.148174 0.527754
vt 0.207452 0.833432
vt 0.300856 0.595600
vt 0.582116 0.905119
vt 0.847236 0.585936
vt 0.544415 0.845816
vt 0.868461 0.652928
vt 0.523911 0.782034
vt 0.869340 0.719918
vt 0.519972 0.711602
vt 0.847236 0.786908
vt 0.533205 0.645932
vt 0.847236 0.853899
vt 0.562985 0.585923
vt 0.847236 0.920889
vt 0.607281 0.535668
vt 0.847236 0.987879
vt 0.791339 0.826603
vt 0.054958 0.527754
vt 0.777008 0.761164
vt 0.054630 0.594744
vt 0.056291 0.663102
vt 0.780780 0.635870
vt 0.811202 0.570296
vt 0.048011 0.734913
vt 0.839466 0.509558
vt 0.773241 0.882130
vt 0.065452 0.799595
vt 0.898401 0.513554
vt 0.711489 0.869473
vt 0.900644 0.576550
vt 0.892934 0.643540
vt 0.651936 0.800518
vt 0.642538 0.733799
vt 0.900150 0.710530
vt 0.650627 0.667298
vt 0.900150 0.777520
vt 0.675747 0.604790
vt 0.907268 0.844511
vt 0.716029 0.550988
vt 0.912696 0.911501
vt 0.148212 0.814265
vt 0.227121 0.530066
vt 0.312549 0.527755
vt 0.115608 0.760382
vt 0.208883 0.590348
vt 0.103671 0.697008
vt 0.206495 0.654791
vt 0.105670 0.630047
vt 0.206214 0.721781
vt 0.125202 0.565173
vt 0.206785 0.789530
vt 0.246240 0.854164
vt 0.281506 0.556104
vt 0.892934 0.585936
vt 0.892934 0.652928
vt 0.892934 0.719918
vt 0.892934 0.786908
vt 0.892934 0.853899
vt 0.892934 0.920889
vt 0.637204 0.509558
vt 0.886949 0.987879
vt 0.840305 0.920779
vt 0.804824 0.863957
vt 0.094671 0.527949
vt 0.100328 0.594969
vt 0.101976 0.661946
vt 0.103670 0.728915
vt 0.103670 0.795905
vt 0.936588 0.509558
vt 0.936588 0.576548
vt 0.936588 0.643540
vt 0.936588 0.710530
vt 0.936588 0.777520
vt 0.936588 0.844511
vt 0.936588 0.911501
vt 0.309287 0.544099
vt 0.243625 0.527754
vt 0.246240 0.588194
vt 0.245132 0.655177
vt 0.244850 0.722166
vt 0.245246 0.789154
vt 0.171295 0.682512
vt 0.784492 0.659520
vt 0.980146 0.208859
vt 0.204105 0.669525
vt 0.062295 0.641199
vt 0.775707 0.658005
vt 0.103090 0.654110
vt 0.169292 0.715929
vt 0.785327 0.747311
vt 0.968147 0.164081
vt 0.202648 0.719539
vt 0.060676 0.606629
vt 0.776424 0.747841
vt 0.101785 0.602286
vt 0.073009 0.650359
vt 0.776088 0.672097
vt 0.182189 0.673781
vt 0.784896 0.673478
vt 0.192386 0.722765
vt 0.782150 0.723437
vt 0.083841 0.599659
vt 0.773242 0.723860
vt 0.025139 0.915682
vt 0.708457 0.858925
vt 0.025139 0.851029
vt 0.664312 0.811686
vt 0.910358 0.576548
vt 0.702324 0.866253
vt 0.910358 0.643540
vt 0.656584 0.817309
vt 0.614762 0.427596
vt 0.048011 0.527754
vt 0.317857 0.550257
vt 0.030836 0.527754
vt 0.773241 0.517252
vt 0.321356 0.567073
vt 0.768672 0.509558
vt 0.912696 0.978491
vt 0.312597 0.568896
vt 0.308835 0.550822
vt 0.931158 0.978491
vt 0.542452 0.157739
vt 0.936586 0.518950
vt 0.292656 0.555787
vt 0.962112 0.509558
vt 0.642538 0.952322
vt 0.308835 0.533923
vt 0.637323 0.959593
vt 0.860708 0.509558
vt 0.302352 0.527755
vt 0.281593 0.554132
vt 0.892934 0.518946
vt 0.053694 0.337955
vt 0.892934 0.585936
vt 0.039020 0.283165
vt 0.281593 0.554132
vt 0.892934 0.518946
vt 0.082047 0.387084
vt 0.892934 0.652928
vt 0.122150 0.427200
vt 0.892934 0.719918
vt 0.171269 0.455570
vt 0.892934 0.786908
vt 0.226056 0.470260
vt 0.892934 0.853899
vt 0.282779 0.470269
vt 0.892934 0.920889
vt 0.886949 0.987879
vt 0.338012 0.456393
vt 0.840305 0.920779
vt 0.387169 0.428095
vt 0.804824 0.863957
vt 0.094671 0.527949
vt 0.426905 0.387300
vt 0.100328 0.594969
vt 0.429925 0.381751
vt 0.101785 0.602286
vt 0.469899 0.283226
vt 0.103670 0.728915
vt 0.455474 0.338084
vt 0.101976 0.661946
vt 0.469899 0.226504
vt 0.103670 0.795905
vt 0.936588 0.509558
vt 0.455229 0.171710
vt 0.936588 0.576548
vt 0.426876 0.122582
vt 0.936588 0.643540
vt 0.386788 0.082452
vt 0.936588 0.710530
vt 0.337689 0.054054
vt 0.936588 0.777520
vt 0.282918 0.039296
vt 0.936588 0.844511
vt 0.226195 0.039031
vt 0.936588 0.911501
vt 0.081953 0.122485
vt 0.245132 0.655177
vt 0.121808 0.082122
vt 0.246240 0.588194
vt 0.053661 0.171645
vt 0.244850 0.722166
vt 0.039000 0.226442
vt 0.245246 0.789154
vt 0.039020 0.281495
vt 0.246240 0.854164
vt 0.281506 0.556104
vt 0.451879 0.343737
vt 0.103090 0.654110
vt 0.171279 0.053950
vt 0.308835 0.550822
vt 0.931158 0.978491
vt 0.166382 0.056880
vt 0.309287 0.544099
vt 0.243625 0.527754
s 0
usemtl Material.001
f 24/52/1 23/50/1 71/155/1 72/157/1
f 26/56/2 27/58/2 28/60/2 29/62/2 30/64/2 31/66/2 32/68/2 33/72/2 34/75/2 102/198/2 98/191/2 35/77/2 36/79/2 37/81/2 38/84/2 39/86/2 40/88/2 41/90/2 42/92/2 43/94/2 113/219/2 44/96/2 45/99/2 46/101/2 47/103/2 48/105/2 25/53/2 117/230/2
f 23/49/3 24/51/3 48/106/3 47/104/3
f 118/233/4 2/4/4 26/57/4 117/231/4
f 16/34/5 17/36/5 41/91/5 40/89/5
f 9/18/6 10/21/6 34/76/6 33/73/6
f 24/51/7 1/1/7 25/54/7 48/106/7
f 2/4/8 3/6/8 27/59/8 26/57/8
f 17/36/9 18/38/9 42/93/9 41/91/9
f 97/189/10 11/22/10 35/78/10 98/192/10 106/205/10
f 3/6/11 4/8/11 28/61/11 27/59/11
f 18/38/12 19/40/12 43/95/12 42/93/12
f 11/22/13 12/24/13 36/80/13 35/78/13
f 4/8/14 5/10/14 29/63/14 28/61/14
f 19/40/15 114/222/15 113/220/15 43/95/15
f 12/24/16 13/26/16 37/82/16 36/80/16
f 5/10/17 6/12/17 30/65/17 29/63/17
f 20/42/18 21/45/18 45/100/18 44/97/18
f 13/27/19 14/30/19 109/211/19 38/85/19 37/83/19
f 6/12/20 7/14/20 31/67/20 30/65/20
f 21/45/21 22/47/21 46/102/21 45/100/21
f 109/211/22 110/213/22 39/87/22 38/85/22
f 7/14/23 8/16/23 32/69/23 31/67/23
f 22/47/24 23/49/24 47/104/24 46/102/24
f 15/32/25 16/34/25 40/89/25 39/87/25 110/213/25
f 32/70/26 8/17/26 56/122/26 80/167/26
f 2/5/27 118/234/27 119/236/27 50/110/27
f 17/37/2 16/35/2 64/140/2 65/142/2
f 10/20/2 9/19/2 57/124/2 58/126/2
f 1/2/2 24/52/2 72/157/2 49/107/2
f 3/7/28 2/5/28 50/110/28 51/112/28
f 18/39/29 17/37/29 65/142/29 66/144/29
f 101/197/30 10/20/30 58/126/30 103/201/30
f 4/9/31 3/7/31 51/112/31 52/114/31
f 19/41/32 18/39/32 66/144/32 67/146/32
f 12/25/33 11/23/33 59/129/33 60/130/33
f 5/11/34 4/9/34 52/114/34 53/116/34
f 114/223/2 19/41/2 67/146/2 115/225/2
f 13/28/35 12/25/35 60/130/35 61/132/35
f 6/13/2 5/11/2 53/116/2 54/118/2
f 21/46/36 20/43/36 68/148/36 69/151/36
f 14/31/37 13/29/37 61/133/37 62/136/37
f 7/15/2 6/13/2 54/118/2 55/120/2
f 22/48/38 21/46/38 69/151/38 70/153/38
f 109/212/39 14/31/39 62/136/39 111/216/39
f 8/17/2 7/15/2 55/120/2 56/122/2
f 23/50/2 22/48/2 70/153/2 71/155/2
f 16/35/40 15/33/40 63/139/40 64/140/40
f 52/115/25 51/113/25 75/162/25 76/163/25
f 67/147/20 66/145/20 90/181/20 91/182/20
f 60/131/41 59/128/41 83/173/41 84/174/41
f 53/117/5 52/115/5 76/163/5 77/164/5
f 115/226/23 67/147/23 91/182/23 116/229/23
f 61/134/42 60/131/42 84/174/42 85/175/42
f 54/119/9 53/117/9 77/164/9 78/165/9
f 69/152/43 68/149/43 92/184/43 93/185/43
f 62/137/44 61/135/44 85/176/44 86/177/44 111/215/44
f 55/121/12 54/119/12 78/165/12 79/166/12
f 70/154/45 69/152/45 93/185/45 94/186/45
f 112/217/8 111/215/8 86/177/8 87/178/8
f 56/123/15 55/121/15 79/166/15 80/168/15
f 71/156/46 70/154/46 94/186/46 95/187/46
f 64/141/11 63/138/11 112/217/11 87/178/11 88/179/11
f 9/19/47 33/74/47 81/170/47 57/124/47
f 72/158/48 71/156/48 95/187/48 96/188/48
f 50/111/49 119/237/49 120/240/49 74/161/49
f 65/143/14 64/141/14 88/179/14 89/180/14
f 58/127/50 57/125/50 81/171/50 82/172/50
f 49/108/51 72/158/51 96/188/51 73/159/51
f 51/113/22 50/111/22 74/161/22 75/162/22
f 66/145/17 65/143/17 89/180/17 90/181/17
f 103/200/52 58/127/52 82/172/52 104/202/52 108/209/52
f 80/168/15 79/166/15 127/255/15 128/256/15
f 80/169/53 81/170/53 33/74/53 32/71/53
f 59/128/54 99/193/54 105/203/54 100/195/54 83/173/54
f 11/23/55 97/190/55 99/194/55 59/129/55
f 10/21/56 101/196/56 107/207/56 102/199/56 34/76/56
f 98/192/57 102/199/57 107/207/57 106/205/57
f 108/210/58 105/204/58 106/206/58 107/208/58
f 100/195/59 105/203/59 108/209/59 104/202/59
f 101/197/60 103/201/60 108/210/60 107/208/60
f 99/194/61 97/190/61 106/206/61 105/204/61
f 110/214/62 112/218/62 63/139/62 15/33/62
f 110/214/63 109/212/63 111/216/63 112/218/63
f 114/224/64 115/227/64 116/228/64 113/221/64
f 116/228/65 92/183/65 44/98/65 113/221/65
f 20/44/66 44/98/66 92/183/66 68/150/66
f 117/232/67 120/239/67 119/238/67 118/235/67
f 25/55/68 1/3/68 49/109/68 73/160/68
f 73/160/69 120/239/69 117/232/69 25/55/69
f 121/241/70 122/243/70 145/293/70 144/291/70 143/289/70 141/285/70 142/287/70 148/301/70 147/298/70 140/283/70 139/281/70 138/279/70 137/277/70 136/275/70 135/273/70 134/270/70 132/266/70 133/268/70 146/296/70 131/264/70 130/262/70 129/259/70 128/257/70 127/254/70 126/252/70 125/250/70 124/248/70 123/246/70
f 92/183/71 116/228/71 147/299/71 148/302/71
f 95/187/72 94/186/72 141/286/72 143/290/72
f 81/170/73 80/169/73 128/258/73 129/260/73
f 93/185/71 92/184/71 148/303/71 142/288/71
f 96/188/74 95/187/74 143/290/74 144/292/74
f 116/229/23 91/182/23 140/284/23 147/300/23
f 82/172/50 81/171/50 129/261/50 130/263/50
f 73/159/75 96/188/75 144/292/75 145/294/75
f 83/173/76 100/195/76 146/297/76 133/269/76
f 104/202/76 82/172/76 130/263/76 131/265/76
f 84/174/77 83/173/77 133/269/77 132/267/77
f 85/175/78 84/174/78 132/267/78 134/271/78
f 120/239/75 73/160/75 145/295/75 122/244/75
f 86/177/79 85/176/79 134/272/79 135/274/79
f 87/178/8 86/177/8 135/274/8 136/276/8
f 74/161/80 120/240/80 122/245/80 121/242/80
f 100/195/76 104/202/76 131/265/76 146/297/76
f 88/179/11 87/178/11 136/276/11 137/278/11
f 75/162/22 74/161/22 121/242/22 123/247/22
f 89/180/14 88/179/14 137/278/14 138/280/14
f 76/163/25 75/162/25 123/247/25 124/249/25
f 90/181/17 89/180/17 138/280/17 139/282/17
f 77/164/5 76/163/5 124/249/5 125/251/5
f 91/182/20 90/181/20 139/282/20 140/284/20
f 78/165/9 77/164/9 125/251/9 126/253/9
f 79/166/12 78/165/12 126/253/12 127/255/12
f 94/186/6 93/185/6 142/288/6 141/286/6
